<svg xmlns="http://www.w3.org/2000/svg" xmlns:xlink="http://www.w3.org/1999/xlink" version="1.1" x="0px" y="0px" viewBox="0 0 432 540" enable-background="new 0 0 432 432" xml:space="preserve"><path d="M403.418,301.647c-22.368-7.158-29.872-7.158-52.217,0c-23.012,7.399-32.155,7.399-55.474,0  c-23.532-7.395-30.194-6.915-52.251,0c-23.418,7.399-32.481,7.399-55.476,0c-22.396-7.158-29.853-7.158-52.246,0  c-23.004,7.399-32.14,7.399-55.474,0c-11.365-3.578-20.242-5.407-26.39-5.407c-5.79,0-14.482,1.829-25.871,5.407  c-10.605,3.373-19.066,5.005-25.701,5.319v33.326l0.085,1.32c3.926-2.072,12.777-3.896,24.178-7.478  c23.966-7.592,32.496-7.17,55.179,0c22.103,6.946,28.818,7.432,52.268,0c23.292-7.399,32.316-7.399,55.754,0  c23.423,7.399,30.128,6.946,52.271,0c22.636-7.236,31.114-7.618,55.156,0c21.991,6.946,28.716,7.399,52.266,0  c23.328-7.399,32.462-7.399,55.464,0c9.877,3.188,17.895,4.957,23.905,5.324l0.186-32.457  C423.965,307.676,414.907,305.364,403.418,301.647z"/><path d="M403.418,245.367c-22.368-7.155-29.872-7.155-52.217,0c-22.902,7.366-32.079,7.395-55.149,0.101l11.705-4.26  c0.756-0.212,3.736-1.301,4.455-1.62l0.546-0.199l-0.018-0.057c14.582-6.79,23.357-23.455,25.146-44.036l0.103,0.151  c0,0-0.107-6.837,2.789-13.03c2.876-6.172,11.598-9.348,11.598-9.348l39.905-14.516l-0.068-0.188  c0.383-0.093,0.787-0.076,1.174-0.219c9.085-3.308,14.151-17.836,9.114-31.685c-5.034-13.822-18.257-21.706-27.335-18.398  c-0.392,0.141-0.691,0.404-1.05,0.577l-0.102-0.28l-40.559,14.758c-2.396,0.784-7.558,1.99-12.137-0.146  c-6.184-2.886-10.502-8.179-10.502-8.179l0.017,0.078c-15.285-17.195-34.493-26.375-51.337-21.857L94.31,153.124l0.083,0.217  c-0.185,0.059-0.365,0.088-0.543,0.156c-25.932,9.436-38.008,49.207-24.873,88.695c-6.099-1.476-11.157-2.23-15.086-2.23  c-5.79,0-14.482,1.829-25.871,5.406c-10.605,3.374-19.066,5.006-25.701,5.32v33.326l0.085,1.32  c3.926-2.073,12.777-3.897,24.178-7.476c23.966-7.594,32.496-7.173,55.179,0c22.103,6.946,28.818,7.429,52.268,0  c23.292-7.396,32.316-7.396,55.754,0c23.423,7.395,30.128,6.946,52.271,0c22.636-7.238,31.114-7.621,55.156,0  c21.991,6.946,28.716,7.395,52.266,0c23.328-7.396,32.462-7.396,55.464,0c9.877,3.188,17.895,4.954,23.905,5.327v-31.675  C423.242,251.511,414.907,249.082,403.418,245.367z M352.729,132.048c0.18-0.063,0.351-0.068,0.523-0.122l-0.044-0.11l22.174-8.067  l0.039,0.107c-4.313,1.946-6.072,8.176-3.846,14.28c2.224,6.114,7.575,9.762,12.119,8.464l0.024,0.056l-22.174,8.074l-0.02-0.061  c-0.163,0.068-0.297,0.173-0.477,0.236c-4.862,1.771-10.653-1.912-12.953-8.225C345.799,140.373,347.867,133.819,352.729,132.048z   M226.899,139.506c14.395-3.069,28.183-1.588,38.86,4.179c11.038,5.982,18.382,16.226,21.225,29.671  c2.291,10.692,0.26,21.677-5.697,30.856c-5.965,9.195-15.169,15.515-25.881,17.81c-17.11,3.632-33.967-7.305-37.618-24.405  c-2.774-13.058,5.644-25.981,18.669-28.738c4.745-1.004,9.626-0.12,13.695,2.533c4.09,2.655,6.905,6.742,7.914,11.523  c0.74,3.446,0.114,6.961-1.744,9.935c1.293-2.533,1.671-5.432,1.035-8.383c-0.86-4.043-3.252-7.509-6.703-9.77  c-3.473-2.253-7.599-3.025-11.649-2.148c-9.679,2.102-15.865,11.608-13.824,21.282c2.398,11.304,13.583,18.554,24.901,16.146  c6.483-1.354,12.049-5.19,15.668-10.76c3.622-5.546,4.832-12.193,3.441-18.674c-1.646-7.75-6.201-14.385-12.843-18.679  c-6.627-4.321-14.188-5.604-21.905-3.963c-2.704,0.577-5.573,1.34-7.973,2.46c-0.038,0.017-39.152,14.222-39.152,14.222  c-4.477-1.927-11.91-4.793-22.503-7.826c-2.121-0.604-5.431-1.099-8.668-1.476L226.899,139.506z M240.172,195.379  c0.224,1.096,0.762,2.051,1.487,2.801c-2.643-1.223-4.703-3.651-5.351-6.679c-0.682-3.259,1.157-6.449,4.191-7.558  c0.285-0.1,0.587-0.19,0.89-0.253c1.057-0.236,2.15-0.024,3.057,0.585c0.928,0.582,1.561,1.522,1.797,2.574  c0.156,0.792-0.925,1.59-1.692,1.788C241.504,189.256,239.519,192.293,240.172,195.379z M141.373,202.832l67.657-24.622  c-2.952,6.615-3.992,14.148-2.37,21.77c3.083,14.504,13.228,25.608,26.017,30.792l-42.221,15.366  c-0.811-0.254-1.605-0.497-2.455-0.771c-22.396-7.155-29.853-7.155-52.246,0c-0.404,0.132-0.774,0.241-1.171,0.366  c-2.02-2.854-3.714-6.131-4.976-9.789C124.565,221.348,129.622,207.106,141.373,202.832z"/><text x="0" y="447" fill="#000000" font-size="5px" font-weight="bold" font-family="'Helvetica Neue', Helvetica, Arial-Unicode, Arial, Sans-serif">Created by Luis Prado</text><text x="0" y="452" fill="#000000" font-size="5px" font-weight="bold" font-family="'Helvetica Neue', Helvetica, Arial-Unicode, Arial, Sans-serif">from the Noun Project</text></svg>